<?xml version="1.0" encoding="utf-8"?>
<!-- Generator: Adobe Illustrator 19.0.0, SVG Export Plug-In . SVG Version: 6.00 Build 0)  -->
<svg version="1.1" id="Layer_1" xmlns="http://www.w3.org/2000/svg" xmlns:xlink="http://www.w3.org/1999/xlink" x="0px" y="0px"
	 viewBox="1703 -842.1 4001 2524" style="enable-background:new 1703 -842.1 4001 2524;" xml:space="preserve">
<style type="text/css">
	.st0{fill:none;stroke:#EBEBEB;stroke-linecap:square;}
</style>
<title>Group 2</title>
<desc>Created with Sketch.</desc>
<g id="Page-1">
	<g id="Group-2">
		<path id="Line" class="st0" d="M5703.5-803.1l-4000,3.7"/>
		<path id="Line_1_" class="st0" d="M5703.5-763.1l-4000,3.7"/>
		<path id="Line_2_" class="st0" d="M5703.5-723.1l-4000,3.7"/>
		<path id="Line_3_" class="st0" d="M5703.5-683.1l-4000,3.7"/>
		<path id="Line_4_" class="st0" d="M5703.5-643.1l-4000,3.7"/>
		<path id="Line_5_" class="st0" d="M5703.5-603.1l-4000,3.7"/>
		<path id="Line_6_" class="st0" d="M5703.5-563.1l-4000,3.7"/>
		<path id="Line_7_" class="st0" d="M5703.5-523.1l-4000,3.7"/>
		<path id="Line_8_" class="st0" d="M5703.5-483.1l-4000,3.7"/>
		<path id="Line_9_" class="st0" d="M5703.5-443.1l-4000,3.7"/>
		<path id="Line_10_" class="st0" d="M5703.5-403.1l-4000,3.7"/>
		<path id="Line_11_" class="st0" d="M5703.5-363.1l-4000,3.7"/>
		<path id="Line_12_" class="st0" d="M5703.5-323.1l-4000,3.7"/>
		<path id="Line_13_" class="st0" d="M5703.5-283.1l-4000,3.7"/>
		<path id="Line_14_" class="st0" d="M5703.5-243.1l-4000,3.7"/>
		<path id="Line_15_" class="st0" d="M5703.5-203.1l-4000,3.7"/>
		<path id="Line_16_" class="st0" d="M5703.5-163.1l-4000,3.7"/>
		<path id="Line_17_" class="st0" d="M5703.5-123.1l-4000,3.7"/>
		<path id="Line_18_" class="st0" d="M5703.5-83.1l-4000,3.7"/>
		<path id="Line_19_" class="st0" d="M5703.5-43.1l-4000,3.7"/>
		<path id="Line_20_" class="st0" d="M5703.5-3.1l-4000,3.7"/>
		<path id="Line_21_" class="st0" d="M5703.5,36.9l-4000,3.7"/>
		<path id="Line_22_" class="st0" d="M5703.5,76.9l-4000,3.7"/>
		<path id="Line_23_" class="st0" d="M5703.5,116.9l-4000,3.7"/>
		<path id="Line_24_" class="st0" d="M5703.5,156.9l-4000,3.7"/>
		<path id="Line_25_" class="st0" d="M5703.5,196.9l-4000,3.7"/>
		<path id="Line_26_" class="st0" d="M5703.5,236.9l-4000,3.7"/>
		<path id="Line_27_" class="st0" d="M5703.5,276.9l-4000,3.7"/>
		<path id="Line_28_" class="st0" d="M5703.5,316.9l-4000,3.7"/>
		<path id="Line_29_" class="st0" d="M5703.5,356.9l-4000,3.7"/>
		<path id="Line_30_" class="st0" d="M5703.5,396.9l-4000,3.7"/>
		<path id="Line_31_" class="st0" d="M5703.5,436.9l-4000,3.7"/>
		<path id="Line_32_" class="st0" d="M5703.5,476.9l-4000,3.7"/>
		<path id="Line_33_" class="st0" d="M5703.5,516.9l-4000,3.7"/>
		<path id="Line_34_" class="st0" d="M5703.5,556.9l-4000,3.7"/>
		<path id="Line_35_" class="st0" d="M5703.5,596.9l-4000,3.7"/>
		<path id="Line_36_" class="st0" d="M5703.5,636.9l-4000,3.7"/>
		<path id="Line_37_" class="st0" d="M5703.5,676.9l-4000,3.7"/>
		<path id="Line_38_" class="st0" d="M5703.5,716.9l-4000,3.7"/>
		<path id="Line_39_" class="st0" d="M5703.5,756.9l-4000,3.7"/>
		<path id="Line_40_" class="st0" d="M5703.5,796.9l-4000,3.7"/>
		<path id="Line_41_" class="st0" d="M5703.5,836.9l-4000,3.7"/>
		<path id="Line_42_" class="st0" d="M5703.5,876.9l-4000,3.7"/>
		<path id="Line_43_" class="st0" d="M5703.5,916.9l-4000,3.7"/>
		<path id="Line_44_" class="st0" d="M5703.5,956.9l-4000,3.7"/>
		<path id="Line_45_" class="st0" d="M5703.5,996.9l-4000,3.7"/>
		<path id="Line_46_" class="st0" d="M5703.5,1036.9l-4000,3.7"/>
		<path id="Line_47_" class="st0" d="M5703.5,1076.9l-4000,3.7"/>
		<path id="Line_48_" class="st0" d="M5703.5,1116.9l-4000,3.7"/>
		<path id="Line_49_" class="st0" d="M5703.5,1156.9l-4000,3.7"/>
		<path id="Line_50_" class="st0" d="M5703.5,1196.9l-4000,3.7"/>
		<path id="Line_51_" class="st0" d="M5703.5,1236.9l-4000,3.7"/>
		<path id="Line_52_" class="st0" d="M5703.5,1276.9l-4000,3.7"/>
		<path id="Line_53_" class="st0" d="M5703.5,1316.9l-4000,3.7"/>
		<path id="Line_54_" class="st0" d="M5703.5,1356.9l-4000,3.7"/>
		<path id="Line_55_" class="st0" d="M5703.5,1396.9l-4000,3.7"/>
		<path id="Line_56_" class="st0" d="M5703.5,1436.9l-4000,3.7"/>
		<path id="Line_57_" class="st0" d="M5703.5,1476.9l-4000,3.7"/>
		<path id="Line_58_" class="st0" d="M5703.5,1516.9l-4000,3.7"/>
		<path id="Line_59_" class="st0" d="M5703.5,1556.9l-4000,3.7"/>
		<path id="Line_60_" class="st0" d="M5703.5,1596.9l-4000,3.7"/>
		<path id="Line_61_" class="st0" d="M5703.5,1636.9l-4000,3.7"/>
		<path id="Line_62_" class="st0" d="M5703.5,1676.9l-4000,3.7"/>
		<path id="Line_63_" class="st0" d="M5663.5,1675.4l-2-2517"/>
		<path id="Line_64_" class="st0" d="M5623.5,1675.4l-2-2517"/>
		<path id="Line_65_" class="st0" d="M5583.5,1675.4l-2-2517"/>
		<path id="Line_66_" class="st0" d="M5543.5,1675.4l-2-2517"/>
		<path id="Line_67_" class="st0" d="M5503.5,1675.4l-2-2517"/>
		<path id="Line_68_" class="st0" d="M5463.5,1675.4l-2-2517"/>
		<path id="Line_69_" class="st0" d="M5423.5,1675.4l-2-2517"/>
		<path id="Line_70_" class="st0" d="M5383.5,1675.4l-2-2517"/>
		<path id="Line_71_" class="st0" d="M5343.5,1675.4l-2-2517"/>
		<path id="Line_72_" class="st0" d="M5303.5,1675.4l-2-2517"/>
		<path id="Line_73_" class="st0" d="M5263.5,1675.4l-2-2517"/>
		<path id="Line_74_" class="st0" d="M5223.5,1675.4l-2-2517"/>
		<path id="Line_75_" class="st0" d="M5183.5,1675.4l-2-2517"/>
		<path id="Line_76_" class="st0" d="M5143.5,1675.4l-2-2517"/>
		<path id="Line_77_" class="st0" d="M5103.5,1675.4l-2-2517"/>
		<path id="Line_78_" class="st0" d="M5063.5,1675.4l-2-2517"/>
		<path id="Line_79_" class="st0" d="M5023.5,1675.4l-2-2517"/>
		<path id="Line_80_" class="st0" d="M4983.5,1675.4l-2-2517"/>
		<path id="Line_81_" class="st0" d="M4943.5,1675.4l-2-2517"/>
		<path id="Line_82_" class="st0" d="M4903.5,1675.4l-2-2517"/>
		<path id="Line_83_" class="st0" d="M4863.5,1675.4l-2-2517"/>
		<path id="Line_84_" class="st0" d="M4823.5,1675.4l-2-2517"/>
		<path id="Line_85_" class="st0" d="M4783.5,1675.4l-2-2517"/>
		<path id="Line_86_" class="st0" d="M4743.5,1675.4l-2-2517"/>
		<path id="Line_87_" class="st0" d="M4703.5,1675.4l-2-2517"/>
		<path id="Line_88_" class="st0" d="M4663.5,1675.4l-2-2517"/>
		<path id="Line_89_" class="st0" d="M4623.5,1675.4l-2-2517"/>
		<path id="Line_90_" class="st0" d="M4583.5,1675.4l-2-2517"/>
		<path id="Line_91_" class="st0" d="M4543.5,1675.4l-2-2517"/>
		<path id="Line_92_" class="st0" d="M4503.5,1675.4l-2-2517"/>
		<path id="Line_93_" class="st0" d="M4463.5,1675.4l-2-2517"/>
		<path id="Line_94_" class="st0" d="M4423.5,1675.4l-2-2517"/>
		<path id="Line_95_" class="st0" d="M4383.5,1675.4l-2-2517"/>
		<path id="Line_96_" class="st0" d="M4343.5,1675.4l-2-2517"/>
		<path id="Line_97_" class="st0" d="M4303.5,1675.4l-2-2517"/>
		<path id="Line_98_" class="st0" d="M4263.5,1675.4l-2-2517"/>
		<path id="Line_99_" class="st0" d="M4223.5,1675.4l-2-2517"/>
		<path id="Line_100_" class="st0" d="M4183.5,1675.4l-2-2517"/>
		<path id="Line_101_" class="st0" d="M4143.5,1675.4l-2-2517"/>
		<path id="Line_102_" class="st0" d="M4103.5,1675.4l-2-2517"/>
		<path id="Line_103_" class="st0" d="M4063.5,1675.4l-2-2517"/>
		<path id="Line_104_" class="st0" d="M4023.5,1675.4l-2-2517"/>
		<path id="Line_105_" class="st0" d="M3983.5,1675.4l-2-2517"/>
		<path id="Line_106_" class="st0" d="M3943.5,1675.4l-2-2517"/>
		<path id="Line_107_" class="st0" d="M3903.5,1675.4l-2-2517"/>
		<path id="Line_108_" class="st0" d="M3863.5,1675.4l-2-2517"/>
		<path id="Line_109_" class="st0" d="M3823.5,1675.4l-2-2517"/>
		<path id="Line_110_" class="st0" d="M3783.5,1675.4l-2-2517"/>
		<path id="Line_111_" class="st0" d="M3743.5,1675.4l-2-2517"/>
		<path id="Line_112_" class="st0" d="M3703.5,1675.4l-2-2517"/>
		<path id="Line_113_" class="st0" d="M3663.5,1675.4l-2-2517"/>
		<path id="Line_114_" class="st0" d="M3623.5,1675.4l-2-2517"/>
		<path id="Line_115_" class="st0" d="M3583.5,1675.4l-2-2517"/>
		<path id="Line_116_" class="st0" d="M3543.5,1675.4l-2-2517"/>
		<path id="Line_117_" class="st0" d="M3503.5,1675.4l-2-2517"/>
		<path id="Line_118_" class="st0" d="M3463.5,1675.4l-2-2517"/>
		<path id="Line_119_" class="st0" d="M3423.5,1675.4l-2-2517"/>
		<path id="Line_120_" class="st0" d="M3383.5,1675.4l-2-2517"/>
		<path id="Line_121_" class="st0" d="M3343.5,1675.4l-2-2517"/>
		<path id="Line_122_" class="st0" d="M3303.5,1675.4l-2-2517"/>
		<path id="Line_123_" class="st0" d="M3263.5,1675.4l-2-2517"/>
		<path id="Line_124_" class="st0" d="M3223.5,1675.4l-2-2517"/>
		<path id="Line_125_" class="st0" d="M3183.5,1675.4l-2-2517"/>
		<path id="Line_126_" class="st0" d="M3143.5,1675.4l-2-2517"/>
		<path id="Line_127_" class="st0" d="M3103.5,1675.4l-2-2517"/>
		<path id="Line_128_" class="st0" d="M3063.5,1675.4l-2-2517"/>
		<path id="Line_129_" class="st0" d="M3023.5,1675.4l-2-2517"/>
		<path id="Line_130_" class="st0" d="M2983.5,1675.4l-2-2517"/>
		<path id="Line_131_" class="st0" d="M2943.5,1675.4l-2-2517"/>
		<path id="Line_132_" class="st0" d="M2903.5,1675.4l-2-2517"/>
		<path id="Line_133_" class="st0" d="M2863.5,1675.4l-2-2517"/>
		<path id="Line_134_" class="st0" d="M2823.5,1675.4l-2-2517"/>
		<path id="Line_135_" class="st0" d="M2783.5,1675.4l-2-2517"/>
		<path id="Line_136_" class="st0" d="M2743.5,1675.4l-2-2517"/>
		<path id="Line_137_" class="st0" d="M2703.5,1675.4l-2-2517"/>
		<path id="Line_138_" class="st0" d="M2663.5,1675.4l-2-2517"/>
		<path id="Line_139_" class="st0" d="M2623.5,1675.4l-2-2517"/>
		<path id="Line_140_" class="st0" d="M2583.5,1675.4l-2-2517"/>
		<path id="Line_141_" class="st0" d="M2543.5,1675.4l-2-2517"/>
		<path id="Line_142_" class="st0" d="M2503.5,1675.4l-2-2517"/>
		<path id="Line_143_" class="st0" d="M2463.5,1675.4l-2-2517"/>
		<path id="Line_144_" class="st0" d="M2413.5,1675.4l-2-2517"/>
		<path id="Line_145_" class="st0" d="M2373.5,1675.4l-2-2517"/>
		<path id="Line_146_" class="st0" d="M2333.5,1675.4l-2-2517"/>
		<path id="Line_147_" class="st0" d="M2293.5,1675.4l-2-2517"/>
		<path id="Line_148_" class="st0" d="M2253.5,1675.4l-2-2517"/>
		<path id="Line_149_" class="st0" d="M2213.5,1675.4l-2-2517"/>
		<path id="Line_150_" class="st0" d="M2173.5,1675.4l-2-2517"/>
		<path id="Line_151_" class="st0" d="M2133.5,1675.4l-2-2517"/>
		<path id="Line_152_" class="st0" d="M2093.5,1675.4l-2-2517"/>
		<path id="Line_153_" class="st0" d="M2053.5,1675.4l-2-2517"/>
		<path id="Line_154_" class="st0" d="M2013.5,1675.4l-2-2517"/>
		<path id="Line_155_" class="st0" d="M1973.5,1675.4l-2-2517"/>
		<path id="Line_156_" class="st0" d="M1933.5,1675.4l-2-2517"/>
		<path id="Line_157_" class="st0" d="M1893.5,1675.4l-2-2517"/>
		<path id="Line_158_" class="st0" d="M1853.5,1675.4l-2-2517"/>
		<path id="Line_159_" class="st0" d="M1813.5,1675.4l-2-2517"/>
		<path id="Line_160_" class="st0" d="M1773.5,1675.4l-2-2517"/>
		<path id="Line_161_" class="st0" d="M1733.5,1675.4l-2-2517"/>
	</g>
</g>
</svg>
